<?xml version="1.0" encoding="iso-8859-1"?>
<!-- Generator: Adobe Illustrator 21.0.0, SVG Export Plug-In . SVG Version: 6.00 Build 0)  -->
<svg version="1.1" id="Layer_1" xmlns="http://www.w3.org/2000/svg" xmlns:xlink="http://www.w3.org/1999/xlink" x="0px" y="0px"
	 viewBox="0 0 100.353 100.353" style="enable-background:new 0 0 100.353 100.353;" xml:space="preserve">
<g>
	<path style="fill:#231F20;" d="M84.867,12.686h-8.767v-1.633c0-3.016-2.451-5.47-5.465-5.47c-3.017,0-5.472,2.454-5.472,5.47v1.633
		h-9.705v-1.633c0-3.016-2.453-5.47-5.469-5.47c-3.018,0-5.472,2.454-5.472,5.47v1.633h-9.702v-1.633c0-3.016-2.455-5.47-5.472-5.47
		c-3.016,0-5.469,2.454-5.469,5.47v1.633h-8.741c-0.829,0-1.5,0.671-1.5,1.5v69.732c0,0.828,0.671,1.5,1.5,1.5h69.733
		c0.828,0,1.5-0.672,1.5-1.5V14.186C86.367,13.357,85.695,12.686,84.867,12.686z M68.164,11.053c0-1.362,1.108-2.47,2.472-2.47
		c1.359,0,2.465,1.108,2.465,2.47v7.422c0,1.362-1.106,2.47-2.465,2.471c-1.363,0-2.472-1.108-2.472-2.471V11.053z M49.99,8.583
		c1.361,0,2.469,1.108,2.469,2.47v7.422c0,1.362-1.107,2.47-2.469,2.471c-1.363,0-2.472-1.108-2.472-2.471v-4.148
		c0.004-0.047,0.014-0.092,0.014-0.141s-0.01-0.094-0.014-0.141v-2.992C47.518,9.691,48.627,8.583,49.99,8.583z M26.875,11.053
		c0-1.362,1.108-2.47,2.469-2.47c1.363,0,2.472,1.108,2.472,2.47v7.422c0,1.362-1.109,2.47-2.472,2.471
		c-1.361,0-2.469-1.108-2.469-2.471V11.053z M83.367,82.418H16.634V15.686h7.241v2.789c0,3.017,2.454,5.471,5.47,5.471
		c3.017-0.001,5.471-2.456,5.471-5.471v-2.789h9.702v2.789c0,3.017,2.455,5.471,5.473,5.471c3.015-0.001,5.468-2.456,5.468-5.471
		v-2.789h9.705v2.789c0,3.017,2.455,5.471,5.473,5.471c3.013-0.001,5.464-2.456,5.464-5.471v-2.789h7.267V82.418z"/>
	<path style="fill:#231F20;" d="M69.253,38.834c-0.656-0.502-1.598-0.378-2.103,0.28L47.199,65.187L33.956,48.908
		c-0.523-0.643-1.468-0.74-2.11-0.217c-0.643,0.523-0.74,1.468-0.217,2.11l14.443,17.753c0.285,0.351,0.712,0.554,1.164,0.554
		c0.007,0,0.015,0,0.022,0c0.459-0.007,0.89-0.224,1.169-0.589l21.107-27.582C70.036,40.28,69.911,39.338,69.253,38.834z"/>
</g>
</svg>
