<?xml version="1.0" standalone="no"?>
<!DOCTYPE svg PUBLIC "-//W3C//DTD SVG 20010904//EN"
 "http://www.w3.org/TR/2001/REC-SVG-20010904/DTD/svg10.dtd">
<svg version="1.0" xmlns="http://www.w3.org/2000/svg"
 width="128.000000pt" height="128.000000pt" viewBox="0 0 128.000000 128.000000"
 preserveAspectRatio="xMidYMid meet">
<metadata>
Created by potrace 1.10, written by Peter Selinger 2001-2011
</metadata>
<g transform="translate(0.000000,128.000000) scale(0.100000,-0.100000)"
fill="#ffffff" stroke="none">
<path d="M330 1192 c-13 -11 -22 -29 -22 -45 0 -25 -3 -26 -67 -29 l-66 -3 0
-460 0 -460 460 0 460 0 0 460 0 460 -62 3 c-59 3 -63 5 -63 27 0 27 -42 65
-72 65 -25 0 -68 -44 -68 -70 0 -18 -6 -20 -60 -20 -54 0 -60 2 -60 20 0 28
-44 70 -73 70 -29 0 -67 -39 -67 -68 0 -20 -5 -22 -65 -22 -63 0 -65 1 -65 25
0 55 -66 83 -110 47z m68 -34 c17 -17 15 -110 -2 -134 -12 -15 -18 -17 -33 -8
-13 8 -19 26 -21 68 -4 74 22 108 56 74z m266 -4 c12 -32 6 -121 -9 -134 -31
-26 -45 -5 -45 68 0 38 3 72 7 75 12 13 41 7 47 -9z m264 -60 c2 -59 0 -73
-14 -78 -30 -12 -44 13 -44 79 0 68 4 77 35 73 18 -3 20 -11 23 -74z m-621
-45 c0 -60 70 -93 113 -54 12 11 20 31 20 52 l0 33 65 0 65 0 0 -33 c0 -52 49
-86 94 -66 25 12 46 47 46 79 0 18 7 20 60 20 59 0 60 0 60 -29 0 -42 30 -74
70 -74 40 0 70 32 70 74 0 28 2 29 48 29 l47 0 0 -425 0 -425 -427 0 -428 0 0
425 0 425 48 0 c48 0 49 -1 49 -31z"/>
<path d="M740 628 c-68 -90 -126 -167 -130 -171 -4 -5 -46 39 -94 97 -79 96
-116 126 -116 95 0 -17 190 -249 204 -249 14 1 278 347 280 367 3 43 -31 10
-144 -139z"/>
</g>
</svg>
