<?xml version="1.0" standalone="no"?>
<!DOCTYPE svg PUBLIC "-//W3C//DTD SVG 20010904//EN"
 "http://www.w3.org/TR/2001/REC-SVG-20010904/DTD/svg10.dtd">
<svg version="1.0" xmlns="http://www.w3.org/2000/svg"
 width="128.000000pt" height="128.000000pt" viewBox="0 0 128.000000 128.000000"
 preserveAspectRatio="xMidYMid meet">
<metadata>
Created by potrace 1.10, written by Peter Selinger 2001-2011
</metadata>
<g transform="translate(0.000000,128.000000) scale(0.100000,-0.100000)"
fill="#ffffff" stroke="none">
<path d="M341 1114 c-12 -15 -21 -35 -21 -45 0 -15 -10 -19 -62 -21 l-63 -3 0
-450 0 -450 445 0 445 0 0 450 0 450 -67 3 c-65 3 -68 4 -68 27 0 55 -78 86
-113 47 -10 -10 -17 -31 -17 -45 0 -26 -2 -27 -55 -27 -47 0 -55 3 -55 19 0
10 -9 30 -21 45 -39 49 -119 22 -119 -41 0 -27 -2 -28 -55 -28 -53 0 -55 1
-55 28 0 63 -80 90 -119 41z m77 -87 c2 -54 0 -68 -13 -73 -29 -12 -45 15 -45
76 0 63 5 72 35 68 17 -3 20 -11 23 -71z m250 7 c3 -64 -12 -92 -43 -80 -11 4
-15 21 -15 69 0 70 4 79 35 75 17 -3 20 -11 23 -64z m240 -7 c2 -54 0 -68 -13
-73 -27 -11 -45 15 -45 66 0 64 8 82 34 78 19 -3 21 -10 24 -71z m-588 -42 c0
-31 41 -75 70 -75 29 0 70 44 70 75 0 24 3 25 55 25 52 0 55 -1 55 -25 0 -30
41 -75 67 -75 31 0 62 29 69 65 6 35 7 35 60 35 53 0 54 -1 54 -29 0 -86 120
-88 128 -3 3 31 5 32 53 32 l49 0 0 -415 0 -415 -415 0 -415 0 0 415 0 415 50
0 c47 0 50 -2 50 -25z"/>
<path d="M490 769 c-66 -14 -115 -100 -93 -164 11 -33 224 -304 240 -305 17 0
233 274 243 309 10 36 -2 90 -28 121 -24 30 -87 49 -129 39 -20 -4 -48 -20
-64 -35 -16 -15 -29 -23 -29 -16 0 30 -87 62 -140 51z m97 -61 c13 -12 27 -35
31 -52 4 -16 13 -31 20 -34 12 -4 16 3 26 51 9 37 61 70 101 62 61 -11 100
-79 73 -128 -19 -36 -192 -256 -199 -254 -6 2 -110 129 -172 210 -39 52 -45
86 -23 126 30 53 97 62 143 19z"/>
</g>
</svg>
